<mxfile host="app.diagrams.net" modified="2022-09-08T10:49:42.538Z" agent="5.0 (X11; Linux x86_64) AppleWebKit/537.36 (KHTML, like Gecko) Chrome/103.0.0.0 Safari/537.36" etag="QDpxv50SuQqgqbUtZx8M" version="20.2.8" type="github">
  <diagram name="Page-1" id="74e2e168-ea6b-b213-b513-2b3c1d86103e">
    <mxGraphModel dx="1350" dy="773" grid="1" gridSize="10" guides="1" tooltips="1" connect="1" arrows="1" fold="1" page="1" pageScale="1" pageWidth="1100" pageHeight="850" background="none" math="0" shadow="0">
      <root>
        <mxCell id="0" />
        <mxCell id="1" parent="0" />
        <mxCell id="SqcTT22bL6kexuG86sE3-2" value="front-end   " style="swimlane;" vertex="1" parent="1">
          <mxGeometry x="280" y="90" width="200" height="740" as="geometry" />
        </mxCell>
        <mxCell id="SqcTT22bL6kexuG86sE3-15" value="Load giao diện web" style="whiteSpace=wrap;html=1;rounded=1;" vertex="1" parent="SqcTT22bL6kexuG86sE3-2">
          <mxGeometry x="30" y="170" width="120" height="60" as="geometry" />
        </mxCell>
        <mxCell id="SqcTT22bL6kexuG86sE3-1" value="user" style="swimlane;" vertex="1" parent="SqcTT22bL6kexuG86sE3-2">
          <mxGeometry x="-260" width="260" height="740" as="geometry" />
        </mxCell>
        <mxCell id="SqcTT22bL6kexuG86sE3-14" value="" style="edgeStyle=orthogonalEdgeStyle;rounded=0;orthogonalLoop=1;jettySize=auto;html=1;" edge="1" parent="SqcTT22bL6kexuG86sE3-1" source="SqcTT22bL6kexuG86sE3-6">
          <mxGeometry relative="1" as="geometry">
            <mxPoint x="130" y="170" as="targetPoint" />
          </mxGeometry>
        </mxCell>
        <mxCell id="SqcTT22bL6kexuG86sE3-6" value="Start" style="ellipse;whiteSpace=wrap;html=1;" vertex="1" parent="SqcTT22bL6kexuG86sE3-1">
          <mxGeometry x="70" y="60" width="120" height="70" as="geometry" />
        </mxCell>
        <mxCell id="SqcTT22bL6kexuG86sE3-17" value="user yêu cầu mở giao diện web" style="rounded=0;whiteSpace=wrap;html=1;" vertex="1" parent="SqcTT22bL6kexuG86sE3-1">
          <mxGeometry x="60" y="170" width="120" height="60" as="geometry" />
        </mxCell>
        <mxCell id="SqcTT22bL6kexuG86sE3-20" value="màn hình tìm kiếm cho người dùng&amp;nbsp;" style="rounded=1;whiteSpace=wrap;html=1;" vertex="1" parent="SqcTT22bL6kexuG86sE3-1">
          <mxGeometry x="70" y="275" width="120" height="60" as="geometry" />
        </mxCell>
        <mxCell id="SqcTT22bL6kexuG86sE3-22" value="user nhập thông &lt;br&gt;tin cần tìm kiếm" style="shape=parallelogram;perimeter=parallelogramPerimeter;whiteSpace=wrap;html=1;fixedSize=1;" vertex="1" parent="SqcTT22bL6kexuG86sE3-1">
          <mxGeometry x="49" y="380" width="150" height="80" as="geometry" />
        </mxCell>
        <mxCell id="SqcTT22bL6kexuG86sE3-23" value="" style="endArrow=classic;html=1;rounded=0;exitX=0.5;exitY=1;exitDx=0;exitDy=0;" edge="1" parent="SqcTT22bL6kexuG86sE3-1" source="SqcTT22bL6kexuG86sE3-20">
          <mxGeometry width="50" height="50" relative="1" as="geometry">
            <mxPoint x="500" y="360" as="sourcePoint" />
            <mxPoint x="130" y="380" as="targetPoint" />
          </mxGeometry>
        </mxCell>
        <mxCell id="SqcTT22bL6kexuG86sE3-16" value="" style="edgeStyle=orthogonalEdgeStyle;rounded=0;orthogonalLoop=1;jettySize=auto;html=1;" edge="1" parent="SqcTT22bL6kexuG86sE3-2" target="SqcTT22bL6kexuG86sE3-15">
          <mxGeometry relative="1" as="geometry">
            <mxPoint x="-70" y="200" as="sourcePoint" />
          </mxGeometry>
        </mxCell>
        <mxCell id="SqcTT22bL6kexuG86sE3-21" value="" style="endArrow=classic;html=1;rounded=0;exitX=0.5;exitY=1;exitDx=0;exitDy=0;" edge="1" parent="SqcTT22bL6kexuG86sE3-2" source="SqcTT22bL6kexuG86sE3-15">
          <mxGeometry width="50" height="50" relative="1" as="geometry">
            <mxPoint x="240" y="370" as="sourcePoint" />
            <mxPoint x="-70" y="310" as="targetPoint" />
            <Array as="points">
              <mxPoint x="90" y="310" />
            </Array>
          </mxGeometry>
        </mxCell>
        <mxCell id="SqcTT22bL6kexuG86sE3-25" value="lấy dữ liệu từ user" style="whiteSpace=wrap;html=1;aspect=fixed;" vertex="1" parent="SqcTT22bL6kexuG86sE3-2">
          <mxGeometry x="40" y="370" width="90" height="90" as="geometry" />
        </mxCell>
        <mxCell id="SqcTT22bL6kexuG86sE3-26" value="" style="endArrow=classic;html=1;rounded=0;entryX=0;entryY=0.5;entryDx=0;entryDy=0;" edge="1" parent="SqcTT22bL6kexuG86sE3-2" source="SqcTT22bL6kexuG86sE3-22" target="SqcTT22bL6kexuG86sE3-25">
          <mxGeometry width="50" height="50" relative="1" as="geometry">
            <mxPoint x="240" y="360" as="sourcePoint" />
            <mxPoint x="290" y="310" as="targetPoint" />
          </mxGeometry>
        </mxCell>
        <mxCell id="SqcTT22bL6kexuG86sE3-36" value="hiển thị màn hình tìm kiếm của người dùng" style="whiteSpace=wrap;html=1;aspect=fixed;labelBackgroundColor=#ffffff;" vertex="1" parent="SqcTT22bL6kexuG86sE3-2">
          <mxGeometry x="50" y="500" width="80" height="80" as="geometry" />
        </mxCell>
        <mxCell id="SqcTT22bL6kexuG86sE3-4" value="DB" style="swimlane;verticalAlign=top;" vertex="1" parent="1">
          <mxGeometry x="770" y="90" width="200" height="740" as="geometry" />
        </mxCell>
        <mxCell id="SqcTT22bL6kexuG86sE3-5" value="SNDB_Companies" style="shape=cylinder3;whiteSpace=wrap;html=1;boundedLbl=1;backgroundOutline=1;size=15;" vertex="1" parent="SqcTT22bL6kexuG86sE3-4">
          <mxGeometry x="60" y="230" width="120" height="80" as="geometry" />
        </mxCell>
        <mxCell id="SqcTT22bL6kexuG86sE3-3" value="WebAPI" style="swimlane;" vertex="1" parent="SqcTT22bL6kexuG86sE3-4">
          <mxGeometry x="-290" width="290" height="740" as="geometry" />
        </mxCell>
        <mxCell id="SqcTT22bL6kexuG86sE3-27" value="WEB-API" style="rounded=1;whiteSpace=wrap;html=1;absoluteArcSize=1;arcSize=14;strokeWidth=2;verticalAlign=top;" vertex="1" parent="SqcTT22bL6kexuG86sE3-3">
          <mxGeometry x="50" y="160" width="190" height="270" as="geometry" />
        </mxCell>
        <mxCell id="SqcTT22bL6kexuG86sE3-28" value="thu thập các pram từ request từ uer gửi đến ." style="rounded=1;whiteSpace=wrap;html=1;labelBackgroundColor=#ffffff;" vertex="1" parent="SqcTT22bL6kexuG86sE3-3">
          <mxGeometry x="80" y="200" width="120" height="60" as="geometry" />
        </mxCell>
        <mxCell id="SqcTT22bL6kexuG86sE3-30" value="các thông tin user gửi đến:&lt;br&gt;name : string&amp;nbsp;&lt;br&gt;industry: array&lt;br&gt;prefecture_code: array" style="shape=document;whiteSpace=wrap;html=1;boundedLbl=1;labelBackgroundColor=#ffffff;" vertex="1" parent="SqcTT22bL6kexuG86sE3-3">
          <mxGeometry x="10" y="80" width="210" height="70" as="geometry" />
        </mxCell>
        <mxCell id="SqcTT22bL6kexuG86sE3-33" value="query dữ liệu từ DB theo điều kiện của request" style="whiteSpace=wrap;html=1;rounded=1;labelBackgroundColor=#ffffff;" vertex="1" parent="SqcTT22bL6kexuG86sE3-3">
          <mxGeometry x="80" y="290" width="120" height="60" as="geometry" />
        </mxCell>
        <mxCell id="SqcTT22bL6kexuG86sE3-34" value="" style="edgeStyle=orthogonalEdgeStyle;rounded=0;orthogonalLoop=1;jettySize=auto;html=1;" edge="1" parent="SqcTT22bL6kexuG86sE3-3" source="SqcTT22bL6kexuG86sE3-28" target="SqcTT22bL6kexuG86sE3-33">
          <mxGeometry relative="1" as="geometry" />
        </mxCell>
        <mxCell id="SqcTT22bL6kexuG86sE3-39" value="" style="endArrow=classic;html=1;rounded=0;entryX=1;entryY=0.75;entryDx=0;entryDy=0;" edge="1" parent="SqcTT22bL6kexuG86sE3-4" source="SqcTT22bL6kexuG86sE3-5" target="SqcTT22bL6kexuG86sE3-33">
          <mxGeometry relative="1" as="geometry">
            <mxPoint x="-270" y="340" as="sourcePoint" />
            <mxPoint x="-100" y="340" as="targetPoint" />
            <Array as="points">
              <mxPoint x="120" y="340" />
            </Array>
          </mxGeometry>
        </mxCell>
        <mxCell id="SqcTT22bL6kexuG86sE3-29" value="" style="endArrow=classic;html=1;rounded=0;exitX=1;exitY=0.5;exitDx=0;exitDy=0;" edge="1" parent="1" source="SqcTT22bL6kexuG86sE3-25" target="SqcTT22bL6kexuG86sE3-28">
          <mxGeometry width="50" height="50" relative="1" as="geometry">
            <mxPoint x="520" y="440" as="sourcePoint" />
            <mxPoint x="510" y="500" as="targetPoint" />
            <Array as="points">
              <mxPoint x="490" y="505" />
              <mxPoint x="490" y="310" />
            </Array>
          </mxGeometry>
        </mxCell>
        <mxCell id="SqcTT22bL6kexuG86sE3-35" value="" style="endArrow=classic;html=1;rounded=0;entryX=1;entryY=0.5;entryDx=0;entryDy=0;" edge="1" parent="1" source="SqcTT22bL6kexuG86sE3-33" target="SqcTT22bL6kexuG86sE3-36">
          <mxGeometry width="50" height="50" relative="1" as="geometry">
            <mxPoint x="520" y="430" as="sourcePoint" />
            <mxPoint x="390" y="600" as="targetPoint" />
            <Array as="points">
              <mxPoint x="620" y="630" />
            </Array>
          </mxGeometry>
        </mxCell>
        <mxCell id="SqcTT22bL6kexuG86sE3-37" value="END" style="ellipse;whiteSpace=wrap;html=1;labelBackgroundColor=#ffffff;" vertex="1" parent="1">
          <mxGeometry x="310" y="760" width="120" height="60" as="geometry" />
        </mxCell>
        <mxCell id="SqcTT22bL6kexuG86sE3-38" value="" style="edgeStyle=orthogonalEdgeStyle;rounded=0;orthogonalLoop=1;jettySize=auto;html=1;" edge="1" parent="1" source="SqcTT22bL6kexuG86sE3-36" target="SqcTT22bL6kexuG86sE3-37">
          <mxGeometry relative="1" as="geometry" />
        </mxCell>
      </root>
    </mxGraphModel>
  </diagram>
</mxfile>
